<svg width="260" height="28" viewBox="0 0 260 28" fill="none" xmlns="http://www.w3.org/2000/svg">
<path d="M8.55601 14.112C12.784 14.112 15.612 11.34 15.612 7.19603C15.612 3.05203 12.784 0.280029 8.55601 0.280029H0.156006V21H4.69201V14.112H8.55601ZM7.54801 4.31203C9.73201 4.31203 10.824 5.26403 10.824 7.19603C10.824 9.12803 9.73201 10.08 7.54801 10.08H4.69201V4.31203H7.54801Z" fill="#131428"/>
<path d="M15.9174 13.972C15.9174 18.396 19.1654 21.336 23.6454 21.336C28.0974 21.336 31.3454 18.396 31.3454 13.972C31.3454 9.54803 28.0974 6.58003 23.6454 6.58003C19.1654 6.58003 15.9174 9.54803 15.9174 13.972ZM20.2574 13.944C20.2574 11.844 21.6294 10.444 23.6454 10.444C25.6334 10.444 27.0054 11.844 27.0054 13.944C27.0054 16.072 25.6334 17.472 23.6454 17.472C21.6294 17.472 20.2574 16.072 20.2574 13.944Z" fill="#131428"/>
<path d="M32.2773 16.576C32.2773 19.404 34.6013 21.364 38.2973 21.364C41.9373 21.364 44.4853 19.544 44.4853 16.548C44.4853 14.308 43.2253 13.244 40.9293 12.74L38.3253 12.18C37.3453 11.956 36.8133 11.592 36.8133 10.948C36.8133 10.192 37.4293 9.68803 38.4093 9.68803C39.4453 9.68803 40.0333 10.332 40.0333 11.284H44.1213C44.1213 8.45603 41.8533 6.55203 38.6053 6.55203C35.2453 6.55203 32.7533 8.23203 32.7533 11.144C32.7533 13.608 34.0133 14.728 36.5893 15.288L39.1653 15.848C40.2013 16.072 40.4253 16.52 40.4253 16.94C40.4253 17.668 39.8093 18.144 38.4653 18.144C37.1493 18.144 36.4213 17.556 36.3653 16.576H32.2773Z" fill="#131428"/>
<path d="M51.8344 21V10.584H54.4944V7.00003H51.8344V2.66003H47.5224V7.00003H44.8624V10.584H47.5224V21H51.8344Z" fill="#131428"/>
<path d="M62.2316 21.364C66.0676 21.364 68.8396 19.376 69.3436 16.268H65.3956C65.0876 17.276 63.9396 17.864 62.3156 17.864C60.4116 17.864 59.3756 16.996 59.1236 15.148L69.2876 15.092V14C69.2876 9.43603 66.5436 6.55203 62.1476 6.55203C57.9196 6.55203 54.9796 9.60403 54.9796 13.972C54.9796 18.284 58.0036 21.364 62.2316 21.364ZM62.1756 10.052C63.9116 10.052 65.0036 11.004 65.0036 12.488H59.1796C59.5156 10.808 60.4676 10.052 62.1756 10.052Z" fill="#131428"/>
<path d="M80.913 7.00003C80.325 6.86003 79.765 6.80403 79.261 6.80403C77.385 6.80403 76.153 7.72803 75.565 9.10003L75.341 7.02803H71.281V21H75.593V14.924C75.593 12.152 77.077 11.06 79.541 11.06H80.913V7.00003Z" fill="#131428"/>
<path d="M81.5255 16.576C81.5255 19.404 83.8495 21.364 87.5455 21.364C91.1855 21.364 93.7335 19.544 93.7335 16.548C93.7335 14.308 92.4735 13.244 90.1775 12.74L87.5735 12.18C86.5935 11.956 86.0615 11.592 86.0615 10.948C86.0615 10.192 86.6775 9.68803 87.6575 9.68803C88.6935 9.68803 89.2815 10.332 89.2815 11.284H93.3695C93.3695 8.45603 91.1015 6.55203 87.8535 6.55203C84.4935 6.55203 82.0015 8.23203 82.0015 11.144C82.0015 13.608 83.2615 14.728 85.8375 15.288L88.4135 15.848C89.4495 16.072 89.6735 16.52 89.6735 16.94C89.6735 17.668 89.0575 18.144 87.7135 18.144C86.3975 18.144 85.6695 17.556 85.6135 16.576H81.5255Z" fill="#131428"/>
<path d="M119.161 10.612C119.161 13.2067 118.377 15.652 116.809 17.948C115.259 20.244 113.617 21.392 111.881 21.392C111.283 21.392 110.761 21.2054 110.313 20.832C109.865 20.44 109.575 19.9174 109.445 19.264C109.389 19.0027 109.361 18.5547 109.361 17.92C108.259 20.216 106.869 21.364 105.189 21.364C104.442 21.364 103.826 21.14 103.341 20.692C102.855 20.244 102.613 19.6747 102.613 18.984C102.613 18.0694 102.874 17.0147 103.397 15.82L105.077 11.956C105.357 11.3027 105.497 10.7707 105.497 10.36C105.497 9.85603 105.282 9.60403 104.853 9.60403C104.479 9.60403 104.003 9.85603 103.425 10.36C102.846 10.8454 102.407 11.3774 102.109 11.956C102.015 12.1614 101.913 12.264 101.801 12.264C101.689 12.264 101.633 12.1894 101.633 12.04C101.633 11.704 101.997 11.1627 102.725 10.416C103.695 9.4267 104.694 8.93203 105.721 8.93203C107.083 8.93203 107.765 9.47336 107.765 10.556C107.765 11.3027 107.466 12.3387 106.869 13.664L105.217 17.304C104.787 18.256 104.573 19.0494 104.573 19.684C104.573 20.468 104.89 20.86 105.525 20.86C107.074 20.86 108.661 18.9 110.285 14.98L111.713 11.536C111.713 11.536 111.89 11.004 112.245 9.94003C112.301 9.71603 112.431 9.5947 112.637 9.57603L112.973 9.54803L113.645 9.46403L114.429 9.32403C114.634 9.2867 114.718 9.26803 114.681 9.26803C114.83 9.26803 114.905 9.32403 114.905 9.43603C114.905 9.5107 114.867 9.58536 114.793 9.66003C114.699 9.8467 114.597 10.08 114.485 10.36L111.853 16.94C111.442 17.9667 111.237 18.8067 111.237 19.46C111.237 20.3747 111.638 20.832 112.441 20.832C113.785 20.832 115.25 19.516 116.837 16.884C118.013 14.924 118.601 13.0294 118.601 11.2C118.601 10.7894 118.479 10.584 118.237 10.584C118.199 10.584 118.106 10.612 117.957 10.668C117.919 10.6867 117.845 10.696 117.733 10.696C117.191 10.696 116.921 10.4627 116.921 9.99603C116.921 9.71603 117.033 9.47336 117.257 9.26803C117.481 9.0627 117.751 8.96003 118.069 8.96003C118.797 8.96003 119.161 9.5107 119.161 10.612Z" fill="#131428"/>
<path d="M128.005 3.89203C128.005 4.67603 127.641 5.06803 126.913 5.06803C126.54 5.06803 126.232 4.95603 125.989 4.73203C125.747 4.48936 125.625 4.1907 125.625 3.83603C125.625 3.0707 126.055 2.68803 126.913 2.68803C127.641 2.68803 128.005 3.08936 128.005 3.89203ZM126.073 9.12803C126.073 9.18403 126.027 9.29603 125.933 9.46403C125.803 9.68803 125.588 10.1454 125.289 10.836L122.069 18.2C121.64 19.1894 121.425 19.8054 121.425 20.048C121.425 20.552 121.687 20.804 122.209 20.804C122.564 20.804 122.965 20.6827 123.413 20.44C123.88 20.1787 124.235 19.8707 124.477 19.516C124.645 19.292 124.776 19.18 124.869 19.18C124.981 19.18 125.037 19.236 125.037 19.348C125.037 19.572 124.776 19.908 124.253 20.356C123.469 21.028 122.583 21.364 121.593 21.364C120.94 21.364 120.399 21.196 119.969 20.86C119.559 20.524 119.353 20.0947 119.353 19.572C119.353 19.1054 119.587 18.3494 120.053 17.304L122.965 10.808C123.059 10.4907 123.171 10.248 123.301 10.08C123.357 10.0054 123.385 9.94003 123.385 9.88403C123.385 9.71603 122.975 9.60403 122.153 9.54803C122.004 9.5107 121.929 9.44536 121.929 9.35203C121.929 9.18403 122.004 9.10003 122.153 9.10003C122.172 9.10003 122.312 9.1187 122.573 9.15603C122.835 9.19336 123.255 9.21203 123.833 9.21203C124.617 9.21203 125.168 9.1467 125.485 9.01603C125.672 8.94136 125.803 8.90403 125.877 8.90403C126.008 8.90403 126.073 8.9787 126.073 9.12803Z" fill="#131428"/>
<path d="M134.536 9.26803C134.536 9.52936 134.144 9.66936 133.36 9.68803L132.296 9.71603H131.792L128.012 18.2C127.601 19.1147 127.396 19.6934 127.396 19.936C127.396 20.328 127.685 20.524 128.264 20.524C129.104 20.524 129.851 20.076 130.504 19.18C130.653 18.9934 130.765 18.9 130.84 18.9C130.989 18.9 131.064 18.9654 131.064 19.096C131.064 19.3387 130.756 19.7307 130.14 20.272C129.431 20.888 128.581 21.196 127.592 21.196C126.92 21.196 126.369 21.028 125.94 20.692C125.529 20.356 125.324 19.9267 125.324 19.404C125.324 19.068 125.539 18.4427 125.968 17.528L129.636 9.66003H128.488C128.171 9.66003 128.012 9.5947 128.012 9.46403C128.012 9.22136 128.143 9.10003 128.404 9.10003H128.656C128.749 9.1187 128.899 9.12803 129.104 9.12803C129.365 9.12803 129.617 9.1187 129.86 9.10003L130.336 7.89603C130.504 7.48536 130.635 7.28003 130.728 7.28003C130.821 7.28003 130.961 7.2987 131.148 7.33603C131.353 7.37336 131.512 7.39203 131.624 7.39203C131.829 7.39203 132.128 7.2987 132.52 7.11203C132.595 7.0747 132.66 7.05603 132.716 7.05603C132.809 7.05603 132.856 7.09336 132.856 7.16803C132.856 7.16803 132.753 7.39203 132.548 7.84003L131.932 9.18403L132.604 9.15603L133.668 9.10003C133.761 9.10003 133.873 9.0907 134.004 9.07203C134.135 9.05336 134.209 9.04403 134.228 9.04403C134.433 9.04403 134.536 9.1187 134.536 9.26803Z" fill="#131428"/>
<path d="M145.061 18.928C145.061 19.0587 144.883 19.2734 144.529 19.572C143.203 20.692 141.999 21.252 140.917 21.252C140.394 21.252 139.974 21.112 139.657 20.832C139.339 20.5334 139.181 20.1507 139.181 19.684C139.181 19.292 139.405 18.592 139.853 17.584L142.317 12.068C142.727 11.1534 142.933 10.584 142.933 10.36C142.933 9.78136 142.625 9.49203 142.009 9.49203C141.243 9.49203 140.31 10.0147 139.209 11.06C138.369 11.8627 137.725 12.5907 137.277 13.244C136.847 13.8974 136.334 14.9054 135.737 16.268L133.917 20.356C133.767 20.7107 133.665 20.916 133.609 20.972C133.553 21.028 133.441 21.056 133.273 21.056C133.198 21.056 132.946 21.0374 132.517 21C131.938 21.0374 131.621 21.0654 131.565 21.084C131.49 21.1027 131.415 21.112 131.341 21.112C131.266 21.112 131.229 21.084 131.229 21.028C131.229 20.9534 131.294 20.7667 131.425 20.468L139.125 2.94003C139.405 2.30536 139.545 1.94136 139.545 1.84803C139.545 1.6987 139.498 1.6147 139.405 1.59603C139.33 1.57736 139.031 1.56803 138.509 1.56803C138.061 1.56803 137.837 1.4747 137.837 1.28803C137.837 1.1947 137.902 1.14803 138.033 1.14803C138.163 1.14803 138.266 1.15736 138.341 1.17603L140.413 1.20403C140.823 1.20403 141.215 1.17603 141.589 1.12003C141.813 1.0827 141.962 1.06403 142.037 1.06403C142.205 1.06403 142.289 1.12936 142.289 1.26003C142.289 1.3907 142.251 1.5027 142.177 1.59603C142.046 1.91336 141.925 2.16536 141.813 2.35203L137.277 12.404C138.453 11.0787 139.433 10.164 140.217 9.66003C141.001 9.13736 141.822 8.87603 142.681 8.87603C143.371 8.87603 143.931 9.04403 144.361 9.38003C144.809 9.69736 145.033 10.108 145.033 10.612C145.033 11.172 144.818 11.9467 144.389 12.936L141.841 18.788C141.523 19.516 141.365 19.9547 141.365 20.104C141.365 20.384 141.505 20.524 141.785 20.524C142.401 20.524 143.259 20.0574 144.361 19.124C144.641 18.8814 144.827 18.76 144.921 18.76C145.014 18.76 145.061 18.816 145.061 18.928Z" fill="#131428"/>
<path d="M162.522 14.112C166.75 14.112 169.578 11.34 169.578 7.19603C169.578 3.05203 166.75 0.280029 162.522 0.280029H154.122V21H158.658V14.112H162.522ZM161.514 4.31203C163.698 4.31203 164.79 5.26403 164.79 7.19603C164.79 9.12803 163.698 10.08 161.514 10.08H158.658V4.31203H161.514Z" fill="#131428"/>
<path d="M180.646 7.00003V14.28C180.646 16.576 179.89 17.528 178.042 17.528C176.278 17.528 175.494 16.52 175.494 14.224V7.00003H171.182V15.792C171.182 19.236 173.142 21.364 176.334 21.364C178.014 21.364 179.75 20.58 180.618 19.432L180.898 21H184.958V7.00003H180.646Z" fill="#131428"/>
<path d="M197.266 7.00003C196.678 6.86003 196.118 6.80403 195.614 6.80403C193.738 6.80403 192.506 7.72803 191.918 9.10003L191.694 7.02803H187.634V21H191.946V14.924C191.946 12.152 193.43 11.06 195.894 11.06H197.266V7.00003Z" fill="#131428"/>
<path d="M198.887 27.72H203.199V19.6C204.011 20.664 205.803 21.392 207.735 21.392C211.907 21.392 214.315 18.2 214.315 13.776C214.315 9.26803 211.599 6.55203 207.707 6.55203C205.719 6.55203 203.955 7.42003 203.171 8.70803L202.947 7.00003H198.887V27.72ZM203.227 14C203.227 11.9 204.627 10.5 206.643 10.5C208.687 10.5 209.975 11.928 209.975 14C209.975 16.072 208.687 17.5 206.643 17.5C204.627 17.5 203.227 16.1 203.227 14Z" fill="#131428"/>
<path d="M215.481 13.972C215.481 18.396 218.729 21.336 223.209 21.336C227.661 21.336 230.909 18.396 230.909 13.972C230.909 9.54803 227.661 6.58003 223.209 6.58003C218.729 6.58003 215.481 9.54803 215.481 13.972ZM219.821 13.944C219.821 11.844 221.193 10.444 223.209 10.444C225.197 10.444 226.569 11.844 226.569 13.944C226.569 16.072 225.197 17.472 223.209 17.472C221.193 17.472 219.821 16.072 219.821 13.944Z" fill="#131428"/>
<path d="M231.841 16.576C231.841 19.404 234.165 21.364 237.861 21.364C241.501 21.364 244.049 19.544 244.049 16.548C244.049 14.308 242.789 13.244 240.493 12.74L237.889 12.18C236.909 11.956 236.377 11.592 236.377 10.948C236.377 10.192 236.993 9.68803 237.973 9.68803C239.009 9.68803 239.597 10.332 239.597 11.284H243.685C243.685 8.45603 241.417 6.55203 238.169 6.55203C234.809 6.55203 232.317 8.23203 232.317 11.144C232.317 13.608 233.577 14.728 236.153 15.288L238.729 15.848C239.765 16.072 239.989 16.52 239.989 16.94C239.989 17.668 239.373 18.144 238.029 18.144C236.713 18.144 235.985 17.556 235.929 16.576H231.841Z" fill="#131428"/>
<path d="M252.238 21.364C256.074 21.364 258.846 19.376 259.35 16.268H255.402C255.094 17.276 253.946 17.864 252.322 17.864C250.418 17.864 249.382 16.996 249.13 15.148L259.294 15.092V14C259.294 9.43603 256.55 6.55203 252.154 6.55203C247.926 6.55203 244.986 9.60403 244.986 13.972C244.986 18.284 248.01 21.364 252.238 21.364ZM252.182 10.052C253.918 10.052 255.01 11.004 255.01 12.488H249.186C249.522 10.808 250.474 10.052 252.182 10.052Z" fill="#131428"/>
</svg>
