<svg width="19" height="28" viewBox="0 0 19 28" fill="none" xmlns="http://www.w3.org/2000/svg">
<path d="M19 27.3704V0.629639L0 0.629639V27.3704H19Z" fill="#D975F4"/>
<path d="M9.5 27.3704L9.5 0.629639L0 0.629639L0 27.3704H9.5Z" fill="#90ED82"/>
<path d="M18.0153 14.0008C18.0153 14.0008 14.2035 18.697 9.50004 18.697C4.79659 18.697 0.984741 14.0008 0.984741 14.0008C0.984741 14.0008 4.79659 9.30469 9.50004 9.30469C14.2035 9.30469 18.0153 14.0008 18.0153 14.0008Z" fill="white"/>
<path d="M9.49999 18.2688C11.8686 18.2688 13.7887 16.358 13.7887 14.0009C13.7887 11.6437 11.8686 9.73291 9.49999 9.73291C7.13141 9.73291 5.2113 11.6437 5.2113 14.0009C5.2113 16.358 7.13141 18.2688 9.49999 18.2688Z" fill="#81DDFE"/>
<path d="M9.5 15.9886C10.6033 15.9886 11.4976 15.0986 11.4976 14.0007C11.4976 12.9027 10.6033 12.0127 9.5 12.0127C8.39675 12.0127 7.50238 12.9027 7.50238 14.0007C7.50238 15.0986 8.39675 15.9886 9.5 15.9886Z" fill="black"/>
</svg>
